<?xml version="1.0" standalone="no"?>
<!DOCTYPE svg PUBLIC "-//W3C//DTD SVG 20010904//EN"
 "http://www.w3.org/TR/2001/REC-SVG-20010904/DTD/svg10.dtd">
<svg version="1.0" xmlns="http://www.w3.org/2000/svg"
 width="2000.000000pt" height="2000.000000pt" viewBox="0 0 2000.000000 2000.000000"
 preserveAspectRatio="xMidYMid meet">

<g transform="translate(0.000000,2000.000000) scale(0.100000,-0.100000)"
fill="#000000" stroke="none">
<path d="M9655 17263 c-40 -142 -84 -234 -165 -341 -50 -67 -139 -150 -198
-186 -10 -6 -179 -34 -215 -36 -4 0 6 26 22 58 51 100 74 196 75 303 1 106
-11 137 -45 118 -14 -7 -19 -21 -19 -53 0 -56 -26 -207 -47 -271 -35 -111 -76
-170 -125 -180 -17 -4 -34 -17 -40 -30 -7 -16 -31 -30 -90 -49 -44 -14 -82
-26 -86 -26 -4 0 -7 57 -8 128 -1 135 -13 195 -61 304 -26 58 -41 72 -68 62
-20 -8 -20 -12 20 -127 38 -113 56 -240 48 -334 l-6 -62 -109 -61 c-60 -33
-111 -60 -113 -60 -2 0 -40 46 -85 102 -53 67 -97 135 -126 197 -61 129 -59
126 -75 126 -34 0 -15 -93 44 -209 38 -78 92 -150 152 -205 44 -40 47 -46 31
-55 -10 -6 -47 -32 -82 -58 -62 -47 -64 -48 -139 -48 -42 0 -111 7 -153 16
-85 17 -235 84 -296 133 -43 34 -64 39 -73 15 -11 -28 86 -110 193 -163 77
-38 154 -59 243 -67 l72 -7 -79 -81 c-43 -45 -97 -104 -121 -133 -60 -72 -105
-88 -241 -87 -58 1 -147 9 -198 18 -95 17 -112 16 -112 -9 0 -22 30 -33 137
-51 97 -16 254 -15 297 2 13 5 -1 -22 -41 -82 -272 -408 -399 -843 -380 -1299
25 -575 249 -1102 641 -1504 235 -241 461 -384 756 -479 255 -82 357 -96 697
-97 l273 0 0 -110 c0 -260 31 -754 85 -1366 36 -405 43 -457 75 -519 29 -56
104 -118 169 -138 69 -21 338 -23 476 -3 493 70 1064 291 1605 619 332 202
519 350 612 486 44 63 78 149 78 193 0 94 -197 350 -505 659 -309 309 -682
576 -1043 746 -112 53 -109 48 -59 103 120 130 258 369 337 585 120 324 230
887 230 1176 0 177 -36 388 -96 556 -65 184 -244 511 -389 710 -274 376 -691
562 -1449 645 l-68 8 73 50 c80 55 131 104 189 180 85 114 146 285 101 285
-17 0 -46 -37 -60 -77 -16 -46 -112 -192 -161 -247 -43 -49 -181 -152 -229
-172 -24 -10 -84 -17 -179 -21 l-142 -5 90 91 c73 75 98 108 135 184 46 95 72
179 77 257 3 40 1 45 -19 48 -19 3 -24 -4 -38 -55z m380 -648 c425 -58 776
-179 988 -339 139 -104 297 -316 451 -603 274 -511 304 -811 151 -1504 -126
-567 -262 -857 -525 -1119 -132 -132 -267 -227 -443 -314 -422 -205 -1017
-296 -1507 -230 -399 54 -719 214 -1016 509 -72 72 -160 169 -195 217 -371
500 -520 1150 -399 1737 78 373 281 748 564 1039 170 175 422 351 691 482 194
94 232 105 470 129 55 6 116 13 135 15 85 10 521 -3 635 -19z m1158 -3711 c98
-50 392 -217 477 -272 352 -227 674 -520 958 -877 108 -135 117 -162 87 -263
-48 -161 -403 -434 -905 -695 -80 -42 -167 -84 -195 -95 -27 -11 -86 -37 -130
-57 -133 -63 -435 -170 -615 -218 -286 -77 -689 -104 -788 -53 -87 45 -101
108 -127 565 -3 63 -8 118 -10 121 -2 3 -5 42 -6 86 -1 43 -6 115 -10 159 -5
44 -13 148 -19 230 -13 202 -71 767 -86 838 -3 15 -3 27 1 27 39 0 348 59 445
85 314 84 623 238 805 400 28 24 54 44 58 45 4 0 31 -12 60 -26z"/>
<path d="M10018 15934 c-23 -22 -5 -45 65 -80 135 -71 235 -197 282 -357 18
-61 39 -76 86 -62 20 7 21 12 16 68 -13 139 -151 322 -298 394 -68 33 -138 50
-151 37z"/>
<path d="M9554 15595 c-10 -26 3 -41 59 -69 80 -39 145 -115 215 -253 69 -135
98 -169 136 -159 22 5 26 12 26 44 0 108 -193 371 -315 428 -58 27 -113 31
-121 9z"/>
<path d="M11404 15078 c-5 -7 -7 -78 -5 -158 1 -80 -2 -176 -9 -215 -46 -295
-234 -538 -531 -687 -359 -180 -820 -165 -1342 43 -104 42 -127 43 -127 9 0
-16 28 -33 133 -85 482 -236 981 -256 1388 -55 217 107 403 295 509 515 61
125 79 193 87 321 6 107 -11 213 -45 284 -18 37 -45 50 -58 28z"/>
<path d="M9323 14341 c-35 -22 -84 -89 -101 -140 -28 -81 -2 -202 44 -209 34
-5 43 17 31 74 -16 77 8 131 81 187 62 47 72 66 47 91 -22 21 -63 20 -102 -3z"/>
<path d="M13017 15058 c-68 -24 -114 -66 -123 -114 -4 -20 -21 -57 -39 -84
-37 -55 -49 -118 -35 -190 38 -200 242 -325 467 -286 141 24 235 88 293 198
32 59 34 69 34 163 1 87 -2 107 -25 155 -38 81 -83 124 -149 143 -157 44 -323
50 -423 15z m378 -91 c88 -49 131 -134 122 -244 -6 -80 -43 -143 -110 -189
-63 -44 -116 -59 -202 -58 -164 0 -287 96 -295 229 -7 112 -5 119 68 195 86
91 113 101 257 97 99 -2 115 -5 160 -30z"/>
<path d="M13143 14278 c-12 -13 -42 -75 -68 -139 -85 -214 -209 -393 -397
-574 -241 -232 -520 -381 -865 -459 -111 -26 -123 -31 -123 -50 0 -32 25 -36
126 -21 361 54 672 208 938 465 191 185 348 406 422 591 31 79 44 187 23 200
-22 14 -34 11 -56 -13z"/>
<path d="M18735 13255 c-585 -210 -1170 -349 -2215 -526 -101 -17 -193 -35
-203 -40 -47 -26 -44 -113 6 -155 28 -24 36 -26 92 -20 33 4 94 13 135 21 41
7 120 21 175 30 55 9 136 23 180 30 44 8 121 21 170 29 546 93 1076 219 1434
340 74 25 135 45 137 43 1 -1 -60 -94 -135 -207 -303 -457 -438 -672 -656
-1050 -115 -199 -299 -533 -370 -672 -22 -43 -43 -78 -46 -78 -3 0 -78 89
-166 198 -148 183 -236 294 -483 612 -52 68 -115 149 -140 181 -25 32 -65 84
-90 116 -25 32 -106 135 -180 228 -74 94 -147 187 -163 208 -34 47 -75 51
-107 10 -29 -37 -23 -54 78 -218 221 -359 407 -611 892 -1209 85 -105 283
-337 311 -365 36 -36 94 -42 127 -13 11 9 48 71 83 137 87 167 302 562 364
670 29 50 78 135 110 190 90 155 212 361 270 455 29 47 85 139 125 205 114
187 297 464 409 620 104 145 111 156 111 186 0 15 -12 41 -26 58 -36 43 -79
40 -229 -14z"/>
<path d="M9280 12005 c-183 -39 -371 -141 -551 -298 -208 -182 -350 -382 -410
-577 -32 -103 -34 -285 -4 -345 23 -46 66 -61 83 -28 5 10 12 81 15 158 7 202
40 304 149 462 61 89 212 243 313 319 169 127 392 218 645 262 48 8 66 34 33
47 -36 14 -208 15 -273 0z"/>
<path d="M16139 11219 c-450 -335 -683 -507 -880 -649 -64 -47 -238 -173 -386
-280 -320 -231 -1067 -767 -1313 -940 -566 -399 -1397 -978 -1843 -1284 -65
-45 -157 -108 -205 -141 -150 -105 -533 -366 -817 -559 -77 -52 -212 -143
-300 -203 -88 -60 -299 -203 -470 -318 -170 -114 -366 -247 -435 -293 -176
-120 -1040 -698 -2160 -1446 l-954 -638 -36 39 c-35 39 -176 199 -321 363 -41
47 -126 144 -188 215 -63 72 -135 153 -160 180 -25 28 -75 84 -111 125 -36 41
-103 118 -150 170 -47 53 -148 167 -225 255 -211 239 -472 533 -529 595 -28
31 -118 132 -201 225 -82 93 -202 226 -265 295 -63 69 -132 145 -155 170 -87
96 -103 110 -130 110 -40 0 -59 -13 -196 -139 -708 -650 -1435 -1368 -1869
-1846 -365 -402 -843 -979 -850 -1025 -6 -41 29 -74 68 -64 19 6 226 222 668
699 553 597 1368 1429 1713 1749 294 272 375 346 412 376 l35 29 145 -166
c174 -201 395 -453 584 -668 77 -87 176 -200 220 -250 86 -99 240 -271 400
-450 55 -61 165 -185 245 -275 80 -90 188 -212 240 -270 52 -58 122 -136 155
-175 33 -38 91 -104 130 -146 38 -41 109 -120 157 -175 47 -54 103 -116 123
-137 55 -56 80 -52 212 34 404 266 892 590 1653 1098 818 546 1055 705 1470
986 91 62 254 172 364 246 303 205 530 359 831 564 50 34 147 100 218 148 271
185 380 259 597 408 124 85 254 175 290 200 36 25 124 86 195 135 108 73 473
327 655 455 25 17 108 75 184 128 234 162 586 410 975 687 123 87 240 171 260
185 103 73 584 419 794 571 29 21 77 56 107 77 102 74 294 214 371 270 42 31
114 84 160 117 128 93 408 300 459 339 25 19 121 91 214 161 93 69 177 136
187 147 11 14 18 39 19 65 0 35 -6 49 -29 73 -53 52 -63 47 -332 -152z"/>
<path d="M12475 10780 c-383 -33 -444 -46 -419 -87 11 -17 28 -18 205 -15 107
1 227 7 267 12 40 6 134 10 207 10 l134 0 36 -31 c20 -18 54 -64 77 -103 83
-144 372 -602 406 -645 34 -42 37 -43 83 -39 45 5 54 11 181 132 149 143 168
172 138 208 l-19 23 -35 -20 c-19 -11 -87 -68 -150 -128 l-116 -107 -29 32
c-15 18 -41 56 -56 83 -48 84 -301 496 -347 564 -24 35 -60 78 -81 95 -38 30
-41 31 -155 33 -65 0 -211 -7 -327 -17z"/>
<path d="M8499 10741 c-64 -21 -197 -99 -248 -147 -77 -71 -113 -138 -119
-224 -6 -88 16 -163 68 -229 75 -95 159 -133 300 -134 87 -1 102 2 162 30 152
71 230 220 206 393 -25 186 -228 357 -369 311z m104 -112 c48 -13 112 -70 139
-123 29 -55 36 -169 15 -230 -37 -107 -115 -166 -232 -174 -90 -6 -155 14
-214 64 -135 116 -112 289 55 415 71 54 155 71 237 48z"/>
<path d="M11517 10403 c-17 -17 -1 -45 69 -123 96 -106 272 -289 426 -442 65
-64 123 -129 129 -145 14 -37 4 -103 -28 -178 -34 -82 -247 -441 -370 -625
-53 -79 -57 -122 -15 -138 24 -9 140 -32 306 -62 119 -20 186 -8 186 34 0 40
-63 65 -230 91 -169 27 -155 21 -134 53 143 218 397 685 415 761 15 67 -6 99
-182 268 -90 87 -222 214 -294 283 -237 229 -257 245 -278 223z"/>
<path d="M9015 9562 c-259 -127 -581 -305 -860 -477 -98 -60 -523 -342 -600
-398 -17 -12 -55 -40 -85 -62 -175 -126 -379 -289 -383 -307 -4 -13 3 -29 19
-45 30 -30 51 -25 119 29 558 438 1157 818 1779 1129 121 60 226 115 233 121
29 24 -3 88 -44 88 -10 0 -90 -35 -178 -78z"/>
<path d="M9399 8748 c-363 -318 -519 -442 -714 -566 -120 -75 -270 -153 -380
-197 -82 -32 -105 -50 -105 -81 0 -37 28 -57 68 -49 127 24 474 220 724 408
189 143 544 450 554 479 8 28 -22 68 -51 68 -16 0 -50 -22 -96 -62z"/>
<path d="M10275 8242 c-11 -4 -99 -59 -195 -123 -672 -445 -1303 -783 -2010
-1077 -118 -49 -262 -106 -318 -127 -108 -40 -131 -61 -117 -106 15 -46 42
-42 240 34 668 257 1469 665 2070 1055 390 253 412 271 386 328 -11 24 -20 27
-56 16z"/>
<path d="M10021 681 c-9 -6 -12 -18 -7 -35 5 -21 3 -26 -13 -26 -18 0 -39 -17
-30 -24 2 -1 31 0 64 4 58 6 59 7 31 18 -24 10 -26 15 -15 28 10 12 10 18 -2
29 -9 9 -19 11 -28 6z"/>
<path d="M9931 557 c-71 -29 -112 -79 -119 -145 -3 -36 0 -53 12 -64 37 -38
269 -36 369 2 68 26 71 40 27 118 -61 105 -168 139 -289 89z m57 -54 c35 -30
38 -68 8 -97 -46 -47 -116 -21 -116 44 0 59 64 90 108 53z m198 -29 c13 -53
-56 -77 -78 -28 -11 23 -10 29 10 44 28 23 60 15 68 -16z"/>
<path d="M9047 564 c-4 -4 -7 -27 -7 -51 l0 -44 -30 16 c-56 29 -108 -3 -117
-73 -11 -81 46 -135 112 -107 19 7 35 10 35 4 0 -5 9 -9 20 -9 26 0 30 23 27
155 -2 90 -5 110 -17 113 -9 1 -19 0 -23 -4z m-19 -136 c28 -58 -25 -122 -68
-83 -39 36 -14 120 34 113 12 -2 27 -15 34 -30z"/>
<path d="M9237 563 c-4 -3 -7 -64 -7 -134 l0 -127 48 -1 c26 -1 58 -1 72 -2
39 -1 70 43 70 99 0 26 -7 55 -14 65 -18 24 -73 39 -97 27 -26 -15 -29 -13
-29 19 0 51 -21 77 -43 54z m121 -115 c29 -29 5 -118 -30 -118 -23 0 -48 34
-48 63 0 52 48 85 78 55z"/>
<path d="M10456 548 c-9 -12 -16 -30 -16 -40 0 -10 -4 -18 -10 -18 -5 0 -10
-7 -10 -15 0 -8 5 -15 10 -15 6 0 10 -31 10 -74 0 -52 4 -77 15 -86 25 -21 35
0 35 76 0 57 4 76 15 80 8 4 15 12 15 20 0 8 -7 14 -15 14 -8 0 -15 6 -15 13
0 19 21 37 42 37 22 0 24 16 2 24 -31 12 -63 6 -78 -16z"/>
<path d="M11407 563 c-4 -3 -7 -12 -7 -20 0 -15 26 -18 34 -4 7 11 -18 33 -27
24z"/>
<path d="M7597 554 c-4 -4 -7 -22 -7 -41 0 -34 -16 -43 -37 -22 -15 15 -58 4
-83 -21 -15 -15 -20 -34 -20 -71 0 -62 10 -83 49 -99 25 -10 35 -9 60 3 18 9
33 11 37 6 3 -5 14 -9 25 -9 19 0 19 6 17 127 -3 106 -6 128 -18 131 -9 1 -19
0 -23 -4z m-25 -111 c24 -21 23 -68 -2 -93 -24 -24 -30 -24 -54 -7 -37 27 -16
117 28 117 5 0 18 -7 28 -17z"/>
<path d="M8122 548 c3 -7 13 -15 22 -16 12 -3 17 1 14 10 -3 7 -13 15 -22 16
-12 3 -17 -1 -14 -10z"/>
<path d="M11499 538 c-11 -227 -10 -238 21 -238 15 0 20 7 20 29 0 31 22 57
40 46 6 -3 19 -24 30 -46 11 -21 25 -39 31 -39 22 0 20 33 -6 81 l-26 51 20
22 c48 51 6 64 -46 14 -18 -17 -36 -28 -40 -25 -4 4 -7 33 -7 65 -1 46 -4 57
-18 60 -13 2 -18 -3 -19 -20z"/>
<path d="M10287 543 c-4 -3 -7 -11 -7 -17 0 -6 5 -5 12 2 6 6 9 14 7 17 -3 3
-9 2 -12 -2z"/>
<path d="M10200 526 c0 -7 6 -19 14 -25 8 -6 19 -25 26 -41 10 -24 15 -28 26
-19 21 17 17 59 -8 80 -27 22 -58 25 -58 5z"/>
<path d="M9720 520 c0 -6 12 -15 26 -20 23 -9 25 -14 19 -49 -5 -33 -4 -39 14
-44 17 -4 21 0 21 17 0 12 9 38 20 59 21 39 11 50 -21 21 -16 -14 -19 -14 -38
5 -23 23 -41 27 -41 11z"/>
<path d="M7734 486 c-70 -31 -68 -147 2 -181 51 -24 124 -5 124 32 0 11 -6 13
-22 8 -56 -17 -69 -17 -88 0 -31 28 -24 35 34 35 30 0 61 3 70 6 23 9 20 49
-6 78 -28 32 -73 40 -114 22z m84 -53 c3 -23 -8 -28 -48 -24 -36 4 -41 10 -30
31 16 30 74 24 78 -7z"/>
<path d="M7938 485 c-50 -28 -31 -90 30 -101 61 -11 79 -34 41 -55 -18 -9 -27
-7 -50 10 -35 26 -49 27 -49 2 0 -25 18 -38 61 -44 53 -7 99 16 99 48 0 29
-32 65 -59 65 -10 0 -29 8 -41 18 -20 16 -21 19 -6 31 13 11 20 11 41 -3 30
-20 55 -21 55 -2 0 36 -78 56 -122 31z"/>
<path d="M8243 476 c-25 -21 -28 -31 -28 -81 0 -48 4 -60 24 -76 26 -21 62
-24 92 -9 16 9 19 7 19 -15 0 -41 -40 -53 -84 -25 -33 20 -37 20 -43 4 -19
-50 107 -75 152 -30 23 23 24 31 24 135 0 112 -7 129 -36 100 -8 -8 -17 -7
-34 5 -32 22 -53 20 -86 -8z m94 -31 c30 -21 34 -51 11 -80 -50 -64 -129 6
-82 73 18 26 41 28 71 7z"/>
<path d="M8528 486 c-18 -9 -29 -11 -36 -4 -16 16 -42 1 -42 -25 0 -13 7 -32
16 -43 8 -10 13 -13 9 -6 -3 7 0 12 8 12 8 0 22 9 32 20 42 47 70 15 66 -76
-1 -40 2 -53 14 -58 30 -11 35 4 29 82 -5 60 -11 81 -26 95 -24 21 -35 21 -70
3z"/>
<path d="M8733 489 c-46 -14 -67 -49 -61 -104 7 -55 20 -72 67 -86 48 -14 111
9 111 40 0 25 -9 26 -36 6 -36 -27 -94 -14 -94 22 0 9 17 13 58 13 83 0 106
32 60 84 -27 30 -61 38 -105 25z m65 -41 c25 -25 13 -38 -33 -38 -49 0 -50 1
-35 31 12 21 50 25 68 7z"/>
<path d="M9587 478 c-8 -13 -20 -41 -27 -63 -7 -22 -16 -44 -20 -48 -4 -5 -18
21 -31 57 -17 46 -29 66 -41 66 -29 0 -28 -15 7 -104 38 -94 37 -122 -7 -128
-32 -4 -29 -32 4 -36 48 -6 65 13 107 123 23 58 41 114 41 125 0 29 -18 33
-33 8z"/>
<path d="M10647 494 c-4 -4 -24 -7 -44 -8 l-38 -1 -3 -89 c-3 -94 6 -119 33
-96 10 8 15 30 15 65 0 74 6 85 46 85 35 0 44 16 22 38 -14 14 -22 15 -31 6z"/>
<path d="M10764 490 c-33 -13 -54 -50 -54 -96 0 -52 28 -90 73 -98 40 -7 93 9
102 31 10 27 -11 37 -36 19 -28 -19 -60 -21 -77 -4 -25 25 -13 38 37 38 64 0
81 7 81 35 0 37 -10 55 -41 70 -31 17 -54 18 -85 5z m64 -42 c24 -24 13 -38
-28 -38 -26 0 -40 5 -40 13 0 18 21 37 40 37 9 0 21 -5 28 -12z"/>
<path d="M10980 482 c-30 -14 -36 -24 -44 -64 -12 -62 3 -94 51 -114 30 -13
44 -14 75 -5 42 13 55 28 39 44 -9 9 -16 8 -31 -1 -30 -18 -68 -15 -80 7 -16
30 -14 31 49 31 67 0 87 15 77 55 -7 26 -58 65 -86 65 -8 0 -31 -8 -50 -18z
m80 -41 c15 -30 14 -31 -35 -31 -25 0 -45 3 -45 6 0 20 24 44 45 44 14 0 29
-8 35 -19z"/>
<path d="M11230 487 c-18 -9 -30 -10 -42 -3 -9 6 -20 7 -25 3 -11 -12 -15
-240 -5 -256 19 -28 42 -4 42 43 l0 44 30 -14 c52 -27 92 -5 110 60 16 57 -6
109 -52 125 -17 6 -31 11 -32 11 -1 0 -12 -6 -26 -13z m52 -44 c24 -21 23 -68
-2 -93 -25 -25 -35 -25 -61 1 -24 24 -20 75 8 97 22 16 33 15 55 -5z"/>
<path d="M11868 489 c-15 -6 -34 -25 -43 -46 -31 -64 0 -134 66 -148 38 -9
103 22 107 51 4 32 -23 36 -47 8 -39 -45 -85 -22 -85 43 0 58 47 81 83 42 21
-23 51 -20 51 5 0 35 -83 63 -132 45z"/>
<path d="M12109 492 c-70 -9 -100 -116 -46 -169 20 -20 36 -26 72 -27 62 -1
95 33 95 98 0 69 -48 107 -121 98z m55 -48 c32 -31 12 -114 -28 -114 -28 0
-50 28 -50 63 0 59 42 87 78 51z"/>
<path d="M11403 483 c-19 -7 -18 -179 0 -186 33 -12 40 9 33 94 -7 86 -12 100
-33 92z"/>
<path d="M12273 474 c-2 -6 -3 -46 -1 -90 3 -73 5 -79 26 -82 21 -3 22 0 22
62 0 45 5 69 16 80 35 35 54 8 54 -75 0 -48 4 -68 14 -72 24 -10 36 16 36 79
0 65 15 92 45 80 11 -4 15 -21 15 -69 0 -71 19 -112 42 -89 16 16 13 159 -3
179 -13 15 -85 18 -94 3 -4 -7 -13 -7 -24 0 -25 13 -142 9 -148 -6z"/>
<path d="M8120 398 c0 -94 10 -122 34 -98 22 23 8 173 -16 178 -16 3 -18 -6
-18 -80z"/>
<path d="M10185 332 c-74 -30 -206 -40 -296 -23 -33 7 -63 10 -65 8 -8 -8 17
-61 39 -85 34 -36 83 -52 161 -52 118 0 207 54 222 136 3 19 5 36 3 38 -2 2
-31 -8 -64 -22z"/>
<path d="M8458 345 c-3 -3 -3 -15 -1 -26 7 -26 38 -21 38 6 0 19 -25 32 -37
20z"/>
<path d="M11716 333 c-4 -9 0 -23 9 -32 13 -14 17 -14 32 1 13 14 14 20 3 32
-16 21 -36 20 -44 -1z"/>
</g>
</svg>
